<?xml version="1.0" encoding="UTF-8"?>
<svg width="75px" height="60px" viewBox="0 0 75 60" version="1.1" xmlns="http://www.w3.org/2000/svg" xmlns:xlink="http://www.w3.org/1999/xlink">
    <g stroke="none" stroke-width="1" fill="none" fill-rule="evenodd">
        <g fill-rule="nonzero">
            <g>
                <path d="M72.8027344,41.125 L2.19726562,41.125 C0.983789062,41.125 0,42.1813708 0,43.484375 L0,57.640625 C0,58.9436292 0.983789062,60 2.19726562,60 L72.8027344,60 C74.0162109,60 75,58.9436292 75,57.640625 L75,43.484375 C75,42.1812135 74.0162109,41.125 72.8027344,41.125 Z" id="Path" fill="#FFE1BA"></path>
                <path d="M72.8065162,41.125 L37.5645439,41.125 L37.5645439,60 L72.8065162,60 C74.0179042,60 75,58.9436292 75,57.640625 L75,43.484375 C75,42.1812135 74.0179042,41.125 72.8065162,41.125 Z" id="Path" fill="#FFD391"></path>
                <path d="M72.8027344,27 L2.19726562,27 C0.983789062,27 0,28.0512 0,29.3478261 L0,45 L75,45 L75,29.3478261 C75,28.0510435 74.0162109,27 72.8027344,27 L72.8027344,27 Z" id="Path" fill="#FFD391"></path>
                <path d="M73.6037203,27.2010834 L19.6060182,4.537215 C18.9979627,4.2818802 18.3157862,4.32993214 17.7444982,4.66755195 C12.2350846,7.92236397 7.91380361,11.6163958 4.90062563,15.6471053 C1.64882505,19.9972188 0,24.6224532 0,29.3945129 L0,31.75 L75,31.75 C75,31.75 74.7657787,30.9442664 74.9616279,29.8313773 C75.1576236,28.7186452 74.587361,27.6139218 73.6037203,27.2010834 Z" id="Path" fill="#C50048"></path>
                <path d="M75,29.3478261 C75,28.0512 74.0179042,27 72.8065162,27 L37.5645439,27 L37.5645439,45 L75,45 L75,29.3478261 Z" id="Path" fill="#FFB64C"></path>
                <path d="M74.9617006,29.8389138 C75.1573587,28.7305527 74.5879323,27.6301687 73.6061325,27.218952 L37.5645439,12.125 L37.5645439,31.75 L75,31.75 C75,31.75 74.7661888,30.9474314 74.9617006,29.8389138 Z" id="Path" fill="#81002F"></path>
                <path d="M41.3069107,9.375 C40.959555,9.375 40.6070781,9.28633008 40.2790362,9.09926009 C39.2085835,8.48908549 38.8018232,7.06393232 39.3707023,5.9159315 C42.2682112,0.067169426 50.1394622,0 50.4730642,0 C51.6851514,0 52.6678141,1.05399501 52.6678141,2.35406867 C52.6678141,3.65414232 51.6851514,4.70813734 50.4730642,4.70813734 C48.9336666,4.71771055 44.621861,5.34985645 43.2469233,8.12498954 C42.8524536,8.92113556 42.0926312,9.375 41.3069107,9.375 Z" id="Path" fill="#80B405"></path>
                <ellipse id="Oval" fill="#FF415B" cx="37.4354561" cy="12.9375" rx="8.77796902" ry="9.4375"></ellipse>
                <path d="M37.4354561,3.5 L37.4354561,22.375 C42.2756282,22.375 46.2134251,18.1413375 46.2134251,12.9375 C46.2134251,7.7336625 42.2756282,3.5 37.4354561,3.5 Z" id="Path" fill="#C50048"></path>
            </g>
        </g>
    </g>
</svg>